<svg width="133" height="133" viewBox="0 0 133 133" fill="none" xmlns="http://www.w3.org/2000/svg">
<path d="M52.6455 11.0821C56.2199 11.0821 59.5449 12.1239 62.3434 13.9194V117.731C58.7426 120.45 54.3531 121.919 49.8414 121.915C40.2765 121.915 32.1358 115.337 29.7418 106.399C24.5369 105.565 19.7996 102.903 16.3801 98.8911C12.9605 94.8795 11.0825 89.7805 11.083 84.5091V83.1237C11.083 74.4676 16.0483 66.9753 23.2802 63.3289C20.3815 60.5606 18.3152 57.0365 17.315 53.155C16.3148 49.2736 16.4206 45.1897 17.6205 41.3653C18.8203 37.5408 21.0663 34.1284 24.1045 31.5139C27.1427 28.8995 30.8518 27.1873 34.8124 26.571C35.42 22.2739 37.5588 18.3407 40.8353 15.4949C44.1118 12.6491 48.3057 11.082 52.6455 11.0821ZM80.3538 11.0821C84.6937 11.082 88.8876 12.6491 92.1641 15.4949C95.4406 18.3407 97.5793 22.2739 98.1869 26.571C102.147 27.1881 105.856 28.9009 108.893 31.5157C111.93 34.1305 114.176 37.543 115.375 41.3673C116.574 45.1916 116.68 49.2752 115.679 53.1562C114.679 57.0373 112.612 60.561 109.714 63.3289C113.381 65.1745 116.464 68.0025 118.619 71.4977C120.774 74.9929 121.915 79.0178 121.916 83.1237V84.5091C121.917 89.7805 120.039 94.8795 116.619 98.8911C113.2 102.903 108.462 105.565 103.258 106.399C100.869 115.337 92.7228 121.915 83.1579 121.915C78.6463 121.919 74.2568 120.45 70.6559 117.731V13.9194C73.549 12.0619 76.9158 11.0768 80.3538 11.0821Z" fill="black"/>
<line x1="76.9585" y1="18.4408" x2="76.0235" y2="114.751" stroke="black" stroke-width="20"/>
<line x1="70.0342" y1="13.77" x2="69.95" y2="117.411" stroke="black" stroke-width="30"/>
</svg>
