<svg width="39" height="39" viewBox="0 0 39 39" fill="none" xmlns="http://www.w3.org/2000/svg">
<path d="M10.8333 10.8346C11.1207 10.8346 11.3962 10.7205 11.5994 10.5173C11.8025 10.3142 11.9167 10.0386 11.9167 9.7513V3.2513C11.9167 2.96398 11.8025 2.68843 11.5994 2.48527C11.3962 2.28211 11.1207 2.16797 10.8333 2.16797C10.546 2.16797 10.2705 2.28211 10.0673 2.48527C9.86414 2.68843 9.75 2.96398 9.75 3.2513V9.7513C9.75 10.0386 9.86414 10.3142 10.0673 10.5173C10.2705 10.7205 10.546 10.8346 10.8333 10.8346Z" fill="black"/>
<path d="M28.1673 10.8346C28.4546 10.8346 28.7302 10.7205 28.9334 10.5173C29.1365 10.3142 29.2507 10.0386 29.2507 9.7513V3.2513C29.2507 2.96398 29.1365 2.68843 28.9334 2.48527C28.7302 2.28211 28.4546 2.16797 28.1673 2.16797C27.88 2.16797 27.6044 2.28211 27.4013 2.48527C27.1981 2.68843 27.084 2.96398 27.084 3.2513V9.7513C27.084 10.0386 27.1981 10.3142 27.4013 10.5173C27.6044 10.7205 27.88 10.8346 28.1673 10.8346Z" fill="black"/>
<path d="M34.9371 6.50012H30.6038V9.75012C30.6038 10.3822 30.3527 10.9884 29.9057 11.4354C29.4588 11.8824 28.8526 12.1335 28.2205 12.1335C27.5884 12.1335 26.9822 11.8824 26.5352 11.4354C26.0882 10.9884 25.8371 10.3822 25.8371 9.75012V6.50012H13.2163V9.75012C13.2163 10.3822 12.9652 10.9884 12.5182 11.4354C12.0713 11.8824 11.4651 12.1335 10.833 12.1335C10.2009 12.1335 9.59465 11.8824 9.14769 11.4354C8.70073 10.9884 8.44963 10.3822 8.44963 9.75012V6.50012H4.11629C3.85849 6.49719 3.60271 6.54599 3.36409 6.64363C3.12546 6.74126 2.90885 6.88576 2.72704 7.06858C2.54524 7.25139 2.40194 7.46881 2.30563 7.70797C2.20931 7.94713 2.16193 8.20317 2.16629 8.46096V32.706C2.16199 32.9592 2.20762 33.2108 2.30057 33.4464C2.39352 33.682 2.53198 33.897 2.70803 34.0791C2.88408 34.2612 3.09428 34.4068 3.32662 34.5076C3.55896 34.6085 3.80888 34.6626 4.06213 34.6668H34.9371C35.1904 34.6626 35.4403 34.6085 35.6726 34.5076C35.905 34.4068 36.1152 34.2612 36.2912 34.0791C36.4673 33.897 36.6057 33.682 36.6987 33.4464C36.7916 33.2108 36.8373 32.9592 36.833 32.706V8.46096C36.8373 8.20772 36.7916 7.95611 36.6987 7.7205C36.6057 7.4849 36.4673 7.26991 36.2912 7.08782C36.1152 6.90574 35.905 6.76011 35.6726 6.65927C35.4403 6.55844 35.1904 6.50436 34.9371 6.50012ZM28.1013 17.9618L17.6255 28.4376L11.9163 22.6851C11.6634 22.4069 11.5264 22.0426 11.5333 21.6666C11.5403 21.2907 11.6907 20.9317 11.9538 20.6631C12.2169 20.3945 12.5727 20.2366 12.9484 20.2218C13.3241 20.207 13.6912 20.3364 13.9746 20.5835L17.6363 24.2451L25.9996 15.8818C26.1369 15.7445 26.2999 15.6356 26.4793 15.5613C26.6586 15.487 26.8509 15.4488 27.045 15.4488C27.2392 15.4488 27.4314 15.487 27.6108 15.5613C27.7902 15.6356 27.9532 15.7445 28.0905 15.8818C28.2277 16.0191 28.3367 16.1821 28.4109 16.3614C28.4852 16.5408 28.5235 16.7331 28.5235 16.9272C28.5235 17.1214 28.4852 17.3136 28.4109 17.493C28.3367 17.6724 28.2277 17.8353 28.0905 17.9726L28.1013 17.9618Z" fill="black"/>
</svg>
