<svg width="62" height="62" viewBox="0 0 62 62" fill="none" xmlns="http://www.w3.org/2000/svg">
<path d="M30.9993 29.7096C29.2865 29.7096 27.6438 29.0292 26.4326 27.818C25.2214 26.6069 24.541 24.9642 24.541 23.2513C24.541 21.5384 25.2214 19.8957 26.4326 18.6846C27.6438 17.4734 29.2865 16.793 30.9993 16.793C32.7122 16.793 34.3549 17.4734 35.5661 18.6846C36.7773 19.8957 37.4577 21.5384 37.4577 23.2513C37.4577 24.0994 37.2906 24.9392 36.9661 25.7228C36.6415 26.5064 36.1658 27.2183 35.5661 27.818C34.9664 28.4177 34.2544 28.8935 33.4708 29.218C32.6873 29.5426 31.8475 29.7096 30.9993 29.7096ZM30.9993 5.16797C26.2034 5.16797 21.6038 7.07317 18.2125 10.4645C14.8212 13.8557 12.916 18.4553 12.916 23.2513C12.916 36.8138 30.9993 56.8346 30.9993 56.8346C30.9993 56.8346 49.0827 36.8138 49.0827 23.2513C49.0827 18.4553 47.1775 13.8557 43.7862 10.4645C40.3949 7.07317 35.7953 5.16797 30.9993 5.16797Z" fill="black"/>
</svg>
