<svg width="142" height="142" viewBox="0 0 142 142" fill="none" xmlns="http://www.w3.org/2000/svg">
<path d="M70.9997 11.832C60.0153 11.832 49.4808 16.1956 41.7137 23.9627C33.9465 31.7298 29.583 42.2643 29.583 53.2487C29.583 67.3304 36.6238 79.6962 47.333 87.2104V100.582C47.333 102.151 47.9564 103.656 49.066 104.766C50.1756 105.875 51.6805 106.499 53.2497 106.499H88.7497C90.3189 106.499 91.8238 105.875 92.9334 104.766C94.043 103.656 94.6663 102.151 94.6663 100.582V87.2104C105.376 79.6962 112.416 67.3304 112.416 53.2487C112.416 42.2643 108.053 31.7298 100.286 23.9627C92.5185 16.1956 81.9841 11.832 70.9997 11.832ZM53.2497 124.249C53.2497 125.818 53.873 127.323 54.9826 128.432C56.0922 129.542 57.5971 130.165 59.1663 130.165H82.833C84.4022 130.165 85.9071 129.542 87.0167 128.432C88.1263 127.323 88.7497 125.818 88.7497 124.249V118.332H53.2497V124.249Z" fill="black"/>
</svg>
