<svg width="136" height="100" viewBox="0 0 136 100" fill="none" xmlns="http://www.w3.org/2000/svg">
<path d="M90.6247 49.8438C84.802 49.8438 79.1719 47.2439 74.7653 42.5258C70.4804 37.9237 67.8636 31.7867 67.402 25.2504C66.9092 18.2779 69.0361 11.8662 73.3889 7.19336C77.7418 2.52051 83.8278 0 90.6247 0C97.3734 0 103.476 2.56582 107.815 7.22734C112.196 11.9342 114.329 18.3346 113.836 25.2476C113.363 31.7924 110.749 37.9266 106.473 42.5229C102.077 47.2439 96.4502 49.8438 90.6247 49.8438ZM127.959 99.6875H53.2928C52.0924 99.6939 50.9064 99.4248 49.8263 98.901C48.7461 98.3771 47.8006 97.6124 47.0624 96.6657C46.2793 95.6395 45.7386 94.4494 45.4806 93.1845C45.2226 91.9197 45.2541 90.6129 45.5727 89.3619C47.9573 79.7868 53.8649 71.8458 62.6555 66.3998C70.4578 61.5684 80.3897 58.9062 90.6247 58.9062C101.061 58.9062 110.732 61.4551 118.58 66.2837C127.39 71.7014 133.306 79.6877 135.679 89.3789C135.994 90.6308 136.022 91.9376 135.761 93.2017C135.5 94.4659 134.957 95.6549 134.173 96.6799C133.435 97.6222 132.492 98.3831 131.415 98.9045C130.338 99.4258 129.156 99.6936 127.959 99.6875ZM37.0993 50.9766C27.1334 50.9766 18.3711 41.7102 17.5583 30.3226C17.1561 24.4886 18.9743 19.0936 22.6559 15.1372C26.2979 11.2205 31.4352 9.0625 37.0993 9.0625C42.7633 9.0625 47.861 11.2318 51.5228 15.1712C55.2328 19.1587 57.0453 24.5424 56.6205 30.3282C55.8077 41.713 47.0482 50.9766 37.0993 50.9766ZM55.6944 59.8833C50.7129 57.4478 44.2473 56.23 37.1021 56.23C28.759 56.23 20.6565 58.405 14.2844 62.3528C7.05993 66.8359 2.20017 73.3638 0.237569 81.2453C-0.0496416 82.379 -0.0768066 83.5629 0.158106 84.7085C0.393018 85.8541 0.883926 86.9318 1.59411 87.8609C2.26799 88.726 3.13129 89.425 4.11764 89.9042C5.10399 90.3834 6.18709 90.63 7.28366 90.625H38.7192C39.2498 90.6249 39.7635 90.4386 40.1708 90.0986C40.5781 89.7586 40.8532 89.2864 40.948 88.7644C40.9792 88.5859 41.0188 88.4075 41.0641 88.2319C43.4657 78.586 49.0929 70.4355 57.4078 64.4939C57.7136 64.2734 57.9596 63.9801 58.1234 63.6406C58.2873 63.3011 58.3638 62.926 58.3461 62.5495C58.3284 62.1729 58.217 61.8067 58.022 61.484C57.827 61.1614 57.5545 60.8925 57.2294 60.7018C56.7847 60.4412 56.275 60.1665 55.6944 59.8833Z" fill="black"/>
</svg>
