<svg width="107" height="107" viewBox="0 0 107 107" fill="none" xmlns="http://www.w3.org/2000/svg">
<path d="M91.0782 36.6121C91.6731 29.5372 93.8067 23.0423 97.5624 17.0867L83.1516 3.21094C78.5998 6.98376 73.4125 9.07454 67.5403 9.44262C62.1561 9.91128 57.0543 8.92688 52.2521 6.483C47.3173 8.84556 42.2348 9.83638 36.9383 9.44262C31.5474 9.01207 26.392 7.04884 22.0803 3.78446L7.63314 17.6559C11.1877 23.695 13.1672 30.0144 13.5545 36.6121C13.7386 39.6487 12.8398 43.8346 10.8175 49.2381C9.8996 51.7899 9.09771 54.3819 8.41424 57.0063C7.9092 59.1655 7.59462 60.916 7.48762 62.2321C7.41486 67.9909 9.09262 73.1911 12.5337 77.8156C15.2237 81.1904 19.6599 84.9183 25.8189 88.995C32.5556 92.297 37.7708 94.4391 41.4237 95.3529L44.454 96.7118C45.4063 97.1484 46.4271 97.5785 47.4906 98.045C49.7911 99.3718 51.4026 100.808 52.2521 102.291C53.2965 100.684 54.9464 99.2862 57.1378 98.045C58.4515 97.5025 59.7543 96.9339 61.0454 96.3395L63.3331 95.355C64.1142 94.9848 65.1349 94.5568 66.3761 94.0839C67.912 93.4985 69.4558 92.9342 71.0071 92.3912C74.5659 91.1799 77.1575 90.0307 78.8031 88.995C84.778 84.9204 89.1457 81.2503 91.9256 77.974C95.4887 73.3345 97.2221 68.1086 97.1429 62.2364C96.9311 59.6042 95.7733 55.397 93.6718 49.6639C91.6731 44.0764 90.7893 39.7407 91.0782 36.6121Z" fill="black"/>
</svg>
